<?xml version="1.0" encoding="UTF-8" standalone="no"?>
<!-- Created with Inkscape (http://www.inkscape.org/) -->

<svg
   width="210mm"
   height="297mm"
   viewBox="0 0 210 297"
   version="1.1"
   id="svg5"
   inkscape:version="1.1.1 (3bf5ae0d25, 2021-09-20)"
   sodipodi:docname="StanFront.svg"
   xmlns:inkscape="http://www.inkscape.org/namespaces/inkscape"
   xmlns:sodipodi="http://sodipodi.sourceforge.net/DTD/sodipodi-0.dtd"
   xmlns="http://www.w3.org/2000/svg"
   xmlns:svg="http://www.w3.org/2000/svg">
  <sodipodi:namedview
     id="namedview7"
     pagecolor="#ffffff"
     bordercolor="#666666"
     borderopacity="1.0"
     inkscape:pageshadow="2"
     inkscape:pageopacity="0.0"
     inkscape:pagecheckerboard="0"
     inkscape:document-units="mm"
     showgrid="false"
     inkscape:zoom="4.040586"
     inkscape:cx="320.25058"
     inkscape:cy="103.82158"
     inkscape:window-width="1920"
     inkscape:window-height="1057"
     inkscape:window-x="-8"
     inkscape:window-y="-8"
     inkscape:window-maximized="1"
     inkscape:current-layer="layer1" />
  <defs
     id="defs2" />
  <g
     inkscape:label="Layer 1"
     inkscape:groupmode="layer"
     id="layer1">
    <path
       style="fill:#000000;stroke-width:0.223921"
       d="m 79.327719,284.2469 c -0.307892,-0.13455 -1.702898,-0.38169 -3.100011,-0.54921 -3.149082,-0.37762 -4.065464,-0.83711 -4.065464,-2.03851 0,-1.06069 1.177964,-2.13981 3.004381,-2.75228 0.749149,-0.25122 2.437275,-1.01013 3.751397,-1.68646 2.373103,-1.22134 3.349163,-2.07714 4.00121,-3.5082 0.143577,-0.31512 0.749865,-0.94573 1.347305,-1.40134 1.683011,-1.28349 2.355737,-2.46682 2.522254,-4.43668 0.07676,-0.90807 0.302725,-2.34974 0.502146,-3.20373 0.227458,-0.97406 0.309206,-1.92825 0.219352,-2.56036 -0.07878,-0.55421 -0.193417,-1.61223 -0.254757,-2.35117 -0.317423,-2.83204 -0.752229,-5.36596 -1.727805,-7.85632 -1.433134,-3.62665 -2.046506,-6.4698 -2.725293,-12.63246 -0.590229,-5.3587 -0.841611,-10.74052 -0.742604,-15.89839 0.08843,-4.60677 0.150591,-5.24917 0.725821,-7.50136 l 0.629107,-2.46313 -0.136729,-7.50136 c -0.164175,-9.00691 -0.145659,-8.89319 -2.934801,-18.02565 -1.401138,-5.63438 -3.424134,-12.24204 -3.840145,-17.20057 -0.145634,-2.07177 -0.157091,-2.10487 -0.860393,-2.48361 -0.59829,-0.3222 -0.810641,-0.33929 -1.321871,-0.10636 -1.189008,0.54175 -4.302012,-0.61238 -5.07858,-1.88285 -0.241619,-0.39529 -0.759089,-1.72636 -1.149935,-2.95792 -0.390845,-1.23156 -0.901198,-2.6103 -1.134109,-3.06384 -0.232916,-0.45355 -0.518847,-1.49802 -0.635397,-2.32103 -0.116551,-0.823 -0.253609,-1.56384 -0.304566,-1.6463 -0.05097,-0.0825 0.01263,-1.9651 0.141337,-4.18366 0.226848,-3.91053 0.218045,-4.09153 -0.28826,-5.92609 -0.608611,-2.20529 -0.634762,-3.43509 -0.109289,-5.13923 0.31688,-1.02765 0.39416,-2.49648 0.466741,-8.8713 0.0873,-7.66639 0.227808,-9.61059 1.009562,-13.96865 0.770006,-4.29254 1.117265,-6.90484 1.117265,-8.40472 0,-1.57406 0.475379,-3.0502 1.908481,-5.92624 0.398895,-0.80051 0.880609,-2.21122 1.070478,-3.13489 0.484983,-2.359346 0.893786,-7.643905 0.857441,-11.084091 -0.01688,-1.601029 0.132044,-4.321677 0.331028,-6.045863 0.243599,-2.110884 0.315895,-3.902908 0.221313,-5.486067 -0.477309,-7.989408 -0.452478,-8.410211 0.772901,-13.099389 0.714225,-2.73313 1.590549,-5.039035 2.286386,-6.016245 0.613441,-0.861502 4.225633,-3.210643 5.390712,-3.505781 1.390372,-0.35222 9.101048,-4.078523 11.792578,-5.698958 1.313139,-0.798737 2.644425,-1.555273 4.030579,-2.215843 v -1.487366 c 0,-1.070777 -0.157154,-1.874126 -0.561101,-2.868235 -0.308602,-0.759477 -0.753223,-2.363894 -0.988051,-3.565364 -0.576842,-2.951392 -0.758891,-3.351268 -2.115889,-4.647627 -1.389223,-1.327141 -1.814757,-2.547748 -2.27831,-6.535104 -0.383501,-3.2988 -0.185851,-4.101148 1.010297,-4.101148 h 0.610134 L 92.938298,21.6551 c 0.229146,-2.492252 1.082918,-6.149416 1.733517,-7.425599 0.600258,-1.177428 3.183771,-3.361352 4.931772,-4.16898 5.263133,-2.4317194 9.751173,-2.1213344 15.136663,1.046823 2.26989,1.335328 3.13047,2.614519 4.25942,6.331321 0.40698,1.339935 0.45596,1.923917 0.3515,4.191289 l -0.12138,2.634434 0.72585,0.136168 c 0.39921,0.0749 0.95539,0.380515 1.23596,0.679157 0.47439,0.504969 0.50911,0.731405 0.49588,3.234007 -0.0133,2.514929 -0.0608,2.797872 -0.72524,4.323869 -0.88048,2.021978 -0.99738,2.168156 -2.13886,2.674276 -0.50715,0.224866 -1.02026,0.535973 -1.14026,0.691354 -0.12,0.155379 -0.68871,1.743592 -1.26384,3.529363 -0.89449,2.777497 -1.04455,3.505812 -1.03799,5.038221 0.009,2.060589 0.23315,2.478821 1.73105,3.227233 0.52228,0.26096 1.83222,1.062828 2.91097,1.781922 5.19514,3.463099 9.4629,5.627094 11.09754,5.627094 0.22096,0 1.43659,0.488142 2.7014,1.084751 4.99221,2.354818 6.33479,4.125938 6.84943,9.035701 0.13302,1.268951 0.29752,2.760613 0.36557,3.314813 0.068,0.554208 0.20907,3.325233 0.31339,6.157836 0.1043,2.832603 0.29188,5.654005 0.41684,6.269792 0.12495,0.615778 0.28588,6.057065 0.35761,12.091735 0.15744,13.24582 0.41845,18.0354 1.13484,20.82466 0.54932,2.13881 1.0592,4.74618 1.46689,7.50135 0.14227,0.96144 0.24237,4.55127 0.23416,8.39705 -0.008,3.6947 0.0861,7.3726 0.2089,8.17312 0.12279,0.80052 0.31984,2.66466 0.43788,4.14254 0.29759,3.72571 1.04134,7.34017 1.8365,8.92509 0.83592,1.66614 1.39135,4.70772 1.19165,6.52546 -0.0812,0.73895 -0.2162,2.30596 -0.30004,3.48226 -0.17112,2.40084 -0.58851,3.34733 -1.4762,3.34733 -0.43528,0 -0.55735,0.1497 -0.68473,0.83971 -0.18715,1.01376 -0.90829,1.84735 -1.59818,1.84735 -0.29273,0 -0.56027,0.17197 -0.63529,0.40836 -0.42589,1.34185 -1.8589,1.75737 -3.21318,0.93168 -0.5571,-0.33966 -0.84107,-0.39423 -1.16087,-0.22308 -0.86958,0.46539 -1.72963,0.26789 -2.40584,-0.55247 -0.74732,-0.90662 -1.43629,-2.68689 -1.54751,-3.99865 -0.0429,-0.50514 -0.40367,-1.9292 -0.80187,-3.16459 -0.65939,-2.04571 -0.72093,-2.47725 -0.68972,-4.83616 0.0291,-2.19743 0.12576,-2.84233 0.6378,-4.2545 1.14257,-3.15116 1.29064,-3.94999 1.00309,-5.41157 -0.19974,-1.01531 -0.1957,-2.01588 0.0174,-4.3197 0.29536,-3.19243 0.32451,-2.86173 -0.84821,-9.62298 -0.19225,-1.10841 -0.57923,-2.77101 -0.85996,-3.69468 -0.56165,-1.77733 -0.95354,-3.7837 -1.32002,-5.34346 -0.32925,-1.39945 -0.79219,-3.71703 -1.02873,-5.15019 -0.23655,-1.43316 -0.55166,-3.15995 -0.70023,-3.83731 -0.14858,-0.67736 -0.28147,-2.39036 -0.29533,-3.80666 -0.0138,-1.41631 -0.14484,-3.28045 -0.29107,-4.14254 -0.17692,0.3769 -0.74104,-7.475281 -1.22917,-6.157826 -1.35792,4.175956 -1.60627,5.520676 -1.75764,9.516636 -0.11894,3.14023 -0.46043,7.14209 -0.71653,8.39705 -0.0809,0.39615 0.64729,6.16646 1.22899,9.7395 0.64823,3.98169 0.68248,4.48238 0.53609,7.83723 -0.28308,3.46786 0.0877,6.9948 -0.3406,10.44614 -0.12261,0.94167 -0.28207,3.25926 -0.35436,5.15019 -0.23676,6.19384 -0.55921,10.79438 -0.89227,12.73076 -0.18006,1.04684 -0.57966,3.61633 -0.888,5.70999 -1.13293,7.69246 -2.97823,16.43643 -4.40287,20.86307 -0.24462,0.76007 -0.64591,2.32192 -0.89176,3.47078 -0.24583,1.14885 -0.54036,2.52167 -0.65449,3.05069 -0.11413,0.52902 -0.25158,2.74583 -0.30545,4.92626 -0.0539,2.18042 -0.17219,5.34464 -0.26293,7.03159 -0.17643,3.28001 0.0561,5.82567 0.8143,8.91261 1.10739,4.50886 1.28913,9.49708 0.50585,13.8831 -0.46727,3.75292 -1.56439,7.85696 -1.64075,11.03304 0,0.49184 -0.49821,3.37478 -1.10715,6.40656 -0.60893,3.03177 -1.21654,6.26805 -1.35024,7.19172 -0.33912,2.34272 -0.37118,5.87306 -0.084,9.2461 0.21415,2.51488 0.31566,2.96518 0.83195,3.69083 1.02695,1.44333 5.27721,5.83784 5.79857,5.99535 0.27565,0.0833 1.15615,0.45392 1.95668,0.82369 0.87048,0.40205 2.25727,0.79441 3.4503,0.97616 2.29881,0.35023 3.62195,1.0566 3.84423,2.05226 0.0756,0.33846 0.28842,1.03254 0.47304,1.54243 0.56288,1.55469 -0.0387,2.197 -2.30723,2.46363 -0.71741,0.0843 -1.65404,0.35962 -2.08143,0.61177 -1.13185,0.66782 -3.64312,0.65982 -4.72817,-0.015 -0.68743,-0.42755 -1.09252,-0.48886 -3.13489,-0.47435 -2.66712,0.0191 -3.03071,-0.0895 -5.36838,-1.60112 -1.42652,-0.92244 -2.08403,-1.1796 -4.36646,-1.70776 -2.27056,-0.52541 -2.79674,-0.73034 -3.39471,-1.32214 -0.91675,-0.90733 -1.15254,-2.3151 -0.75035,-4.48003 0.49986,-2.69066 0.51344,-3.14712 0.11645,-3.91481 -0.66403,-1.28409 -0.66925,-2.79585 -0.0188,-5.4431 0.51988,-2.11588 0.59322,-2.86774 0.58982,-6.04587 -0.006,-6.10552 -0.30723,-8.80397 -1.35304,-12.1434 -2.02066,-6.45219 -2.52316,-14.8223 -1.31462,-21.89692 0.52093,-3.04952 0.48132,-4.45658 -0.24077,-8.55146 -0.23889,-1.35472 -0.53351,-3.31964 -0.65471,-4.36646 -0.12119,-1.04684 -0.44629,-2.65907 -0.72245,-3.58274 -0.43571,-1.45735 -0.50286,-2.19755 -0.50786,-5.59803 -0.004,-2.15524 0.13104,-5.78276 0.29826,-8.06115 0.61334,-8.35756 0.51616,-20.18585 -0.22629,-27.5423 -0.13051,-1.29314 -0.29633,-3.51493 -0.36847,-4.9373 -0.11719,-2.31039 -0.18901,-2.65337 -0.67357,-3.21672 -0.29833,-0.34682 -0.57329,-0.59376 -0.61106,-0.54875 -1.1217,4.0237 -0.53156,7.99048 -1.232245,12.06159 -1.065996,5.80155 -1.256328,19.61935 -0.375066,27.2287 0.371372,3.20661 0.349347,3.77857 -0.313858,8.15083 -1.067139,7.03529 -1.240632,12.09036 -0.587894,17.12996 0.813632,6.28177 0.105583,16.64574 -1.522137,22.28014 -1.038708,3.59556 -1.686972,7.32231 -1.694353,9.74057 -0.0025,0.73895 0.19574,3.07133 0.439999,5.18306 0.353149,3.05318 0.585367,4.19966 1.133868,5.59803 0.68108,1.7363 0.687929,1.79444 0.543284,4.6069 -0.13895,2.70166 -0.121044,2.88418 0.347507,3.54219 0.906188,1.27263 0.981112,4.62039 0.132393,5.9157 -0.456199,0.69624 -1.139029,0.9923 -2.864637,1.2421 -2.840632,0.4112 -3.714798,0.69141 -4.888418,1.56706 -1.58019,1.20774 -3.652652,1.21763 -5.373055,1.48742 -3.083094,0.48445 -4.908459,0.57306 -5.598024,0.27174 z M 75.310056,141.83105 c -0.132336,-2.13684 -0.305765,-4.38365 -0.385393,-4.99293 -0.133333,-1.02026 -0.163393,-1.06449 -0.380442,-0.5598 -0.135808,0.31579 -0.228645,2.11348 -0.219092,4.24267 0.01536,3.41877 0.05433,3.75812 0.522052,4.54396 0.278015,0.46709 0.550031,0.80471 0.604492,0.75026 0.05447,-0.0544 -0.0093,-1.84733 -0.141617,-3.98416 z m 7.469147,-36.42836 c 0.625311,-1.20922 1.065964,-3.65314 0.894965,-4.96358 l -0.160702,-1.231556 -0.185401,0.836606 c -0.10197,0.46013 -0.43918,1.43955 -0.749344,2.17647 -0.540517,1.28421 -0.716764,2.70989 -0.428028,3.46231 0.184867,0.48176 0.249317,0.45302 0.62851,-0.28025 z"
       id="path1514"
       sodipodi:nodetypes="csssssssssccssscsccssssssssssssssscsssssccsssssscsssssscssscssccssssscssssscsssssssssssscsssscsccsscccscsccsssssssscccsssssssssssscsssssscsssssccsssccsssscssssssccccssssscssscssss" />
  </g>
</svg>
